<svg width="23" height="23" viewBox="0 0 23 23" fill="none" xmlns="http://www.w3.org/2000/svg">
<path d="M21.0321 12.9926C21.8605 12.9926 22.5321 12.321 22.5321 11.4926C22.5321 10.6641 21.8605 9.99256 21.0321 9.99256V12.9926ZM21.1091 16.7384C21.9375 16.7384 22.6091 16.0668 22.6091 15.2384C22.6091 14.41 21.9375 13.7384 21.1091 13.7384V16.7384ZM22.5062 11.2153C22.3531 10.4011 21.5689 9.86527 20.7548 10.0184C19.9406 10.1715 19.4048 10.9557 19.5579 11.7698L22.5062 11.2153ZM21.1324 12.5668L22.6324 12.5668L22.6324 12.5667L21.1324 12.5668ZM19.6152 15.0979C19.5403 15.9229 20.1484 16.6525 20.9734 16.7274C21.7984 16.8023 22.528 16.1943 22.6029 15.3692L19.6152 15.0979ZM19.5571 11.7654C19.7078 12.58 20.4903 13.1182 21.305 12.9675C22.1196 12.8168 22.6578 12.0343 22.507 11.2197L19.5571 11.7654ZM16.2316 4.90614C15.4289 4.70129 14.6121 5.18594 14.4073 5.98864C14.2024 6.79133 14.6871 7.60812 15.4898 7.81297L16.2316 4.90614ZM22.6039 15.3626C22.6725 14.537 22.0589 13.8121 21.2333 13.7435C20.4077 13.6749 19.6828 14.2886 19.6142 15.1142L22.6039 15.3626ZM13.9137 21.1592L13.9137 22.6593L13.9232 22.6592L13.9137 21.1592ZM9.1012 21.1592L9.09078 22.6592H9.1012V21.1592ZM1.88245 14.7152L3.38245 14.7285V14.7152H1.88245ZM1.88245 12.5668L3.38245 12.5668L3.38245 12.5651L1.88245 12.5668ZM3.72055 10.892C4.03952 10.1274 3.6783 9.24905 2.91375 8.93008C2.14919 8.61111 1.27081 8.97233 0.951844 9.73689L3.72055 10.892ZM15.4961 7.81422C16.2995 8.01636 17.1146 7.52894 17.3167 6.72555C17.5189 5.92217 17.0315 5.10703 16.2281 4.90489L15.4961 7.81422ZM13.9137 6.11789L13.9158 4.61789H13.9137V6.11789ZM9.1012 6.11789L9.1012 4.61788L9.09509 4.6179L9.1012 6.11789ZM0.948487 9.745C0.633997 10.5114 1.00035 11.3877 1.76676 11.7021C2.53318 12.0166 3.40942 11.6503 3.72391 10.8839L0.948487 9.745ZM14.5922 7.158C15.0332 7.85931 15.9592 8.07036 16.6605 7.6294C17.3618 7.18843 17.5729 6.26243 17.1319 5.56112L14.5922 7.158ZM14.7346 4.56639L13.4481 5.33778C13.4536 5.34686 13.4591 5.35588 13.4647 5.36483L14.7346 4.56639ZM11.1522 2.02322L10.7936 3.47972L10.7936 3.47972L11.1522 2.02322ZM6.5877 2.56056L5.88922 1.23309L5.88459 1.23555L6.5877 2.56056ZM4.8662 3.47406L4.16309 2.14905C4.15616 2.15273 4.14925 2.15647 4.14237 2.16026L4.8662 3.47406ZM0.972185 10.9385C1.31685 11.6918 2.20695 12.0231 2.96027 11.6784C3.7136 11.3338 4.04488 10.4437 3.70021 9.69036L0.972185 10.9385ZM21.0321 9.99256H18.4333V12.9926H21.0321V9.99256ZM18.4333 9.99256C16.6158 9.99256 14.8021 11.3264 14.8021 13.3655H17.8021C17.8021 13.3303 17.8148 13.2572 17.9165 13.1679C18.021 13.076 18.1993 12.9926 18.4333 12.9926V9.99256ZM14.8021 13.3655C14.8021 15.4045 16.6158 16.7384 18.4333 16.7384V13.7384C18.1993 13.7384 18.021 13.655 17.9165 13.5631C17.8148 13.4737 17.8021 13.4007 17.8021 13.3655H14.8021ZM18.4333 16.7384H21.1091V13.7384H18.4333V16.7384ZM19.5579 11.7698C19.6076 12.0339 19.6324 12.3003 19.6324 12.5669L22.6324 12.5667C22.6324 12.1134 22.5901 11.6614 22.5062 11.2153L19.5579 11.7698ZM19.6324 12.5668V14.7152H22.6324V12.5668H19.6324ZM19.6324 14.7152C19.6324 14.8443 19.6267 14.9719 19.6152 15.0979L22.6029 15.3692C22.6226 15.1521 22.6324 14.934 22.6324 14.7152H19.6324ZM22.507 11.2197C21.9328 8.11571 19.4168 5.71902 16.2316 4.90614L15.4898 7.81297C17.7176 8.38153 19.2268 9.98022 19.5571 11.7654L22.507 11.2197ZM19.6142 15.1142C19.4154 17.5072 17.0792 19.6392 13.9042 19.6593L13.9232 22.6592C18.3239 22.6314 22.251 19.6096 22.6039 15.3626L19.6142 15.1142ZM13.9137 19.6592H9.1012V22.6592H13.9137V19.6592ZM9.11162 19.6593C5.73445 19.6358 3.36004 17.2534 3.38239 14.7285L0.382508 14.7019C0.342343 19.2393 4.43152 22.6268 9.09078 22.6592L9.11162 19.6593ZM3.38245 14.7152V12.5668H0.382449V14.7152H3.38245ZM3.38245 12.5651C3.38183 11.999 3.49476 11.4332 3.72055 10.892L0.951844 9.73689C0.575669 10.6386 0.381385 11.5977 0.38245 12.5684L3.38245 12.5651ZM16.2281 4.90489C15.4744 4.71528 14.6965 4.61898 13.9158 4.61789L13.9116 7.61789C14.449 7.61864 14.9825 7.68501 15.4961 7.81422L16.2281 4.90489ZM13.9137 4.61789H9.1012V7.61789H13.9137V4.61789ZM9.09509 4.6179C5.54772 4.63235 2.24105 6.59502 0.948487 9.745L3.72391 10.8839C4.48962 9.01782 6.58708 7.62814 9.10731 7.61788L9.09509 4.6179ZM17.1319 5.56112L16.0044 3.76795L13.4647 5.36483L14.5922 7.158L17.1319 5.56112ZM16.021 3.795C15.0491 2.17405 13.3997 1.03179 11.5108 0.566715L10.7936 3.47972C11.9864 3.77341 12.9281 4.47051 13.4481 5.33778L16.021 3.795ZM11.5108 0.566715C9.62259 0.101822 7.59498 0.335583 5.88923 1.2331L7.28617 3.88801C8.32632 3.34072 9.59999 3.18585 10.7936 3.47972L11.5108 0.566715ZM5.88459 1.23555L4.16309 2.14905L5.5693 4.79907L7.2908 3.88557L5.88459 1.23555ZM4.14237 2.16026C0.92414 3.93331 -0.545573 7.62119 0.972185 10.9385L3.70021 9.69036C2.91413 7.97226 3.57577 5.8976 5.59003 4.78786L4.14237 2.16026Z" fill="#070A21"/>
</svg>
