<svg width="21" height="21" viewBox="0 0 21 21" fill="none" xmlns="http://www.w3.org/2000/svg">
<path fill-rule="evenodd" clip-rule="evenodd" d="M17.575 15.5647V13.7754C17.575 13.3323 17.751 12.9074 18.0643 12.5941L19.3297 11.3287C19.9821 10.6763 19.9821 9.61851 19.3297 8.96607L18.0643 7.70074C17.751 7.38743 17.575 6.96249 17.575 6.51941V4.72874C17.575 3.80606 16.827 3.05807 15.9043 3.05807H14.1137C13.6706 3.05807 13.2456 2.88205 12.9323 2.56874L11.667 1.30341C11.0146 0.65098 9.95677 0.65098 9.30433 1.30341L8.039 2.56874C7.72569 2.88205 7.30075 3.05807 6.85766 3.05807H5.067C4.62368 3.05807 4.19854 3.23427 3.88519 3.54787C3.57184 3.86147 3.39598 4.28675 3.39633 4.73007V6.51941C3.39633 6.96249 3.22031 7.38743 2.907 7.70074L1.64166 8.96607C0.989237 9.61851 0.989237 10.6763 1.64166 11.3287L2.907 12.5941C3.22031 12.9074 3.39633 13.3323 3.39633 13.7754V15.5647C3.39633 16.4874 4.14431 17.2354 5.067 17.2354H6.85766C7.30075 17.2354 7.72569 17.4114 8.039 17.7247L9.30433 18.9901C9.95677 19.6425 11.0146 19.6425 11.667 18.9901L12.9323 17.7247C13.2456 17.4114 13.6706 17.2354 14.1137 17.2354H15.903C16.3463 17.2358 16.7716 17.0599 17.0852 16.7466C17.3988 16.4332 17.575 16.0081 17.575 15.5647Z" stroke="#03001B" stroke-width="1.5" stroke-linecap="round" stroke-linejoin="round"/>
<path fill-rule="evenodd" clip-rule="evenodd" d="M6.8617 8.33548C6.49522 7.96903 6.38557 7.4179 6.58389 6.93909C6.78221 6.46027 7.24944 6.14807 7.7677 6.14807C8.28596 6.14807 8.75319 6.46027 8.95151 6.93909C9.14983 7.4179 9.04018 7.96903 8.6737 8.33548C8.17332 8.83582 7.36208 8.83582 6.8617 8.33548Z" stroke="#03001B" stroke-width="1.5" stroke-linecap="round" stroke-linejoin="round"/>
<path fill-rule="evenodd" clip-rule="evenodd" d="M12.2976 13.7714C11.9311 13.4049 11.8215 12.8538 12.0198 12.375C12.2181 11.8962 12.6854 11.584 13.2036 11.584C13.7219 11.584 14.1891 11.8962 14.3874 12.375C14.5857 12.8538 14.4761 13.4049 14.1096 13.7714C13.6092 14.2717 12.798 14.2717 12.2976 13.7714Z" stroke="#03001B" stroke-width="1.5" stroke-linecap="round"/>
<path d="M14.1097 6.52209L6.86035 13.7728" stroke="#03001B" stroke-width="1.5" stroke-linecap="round"/>
</svg>
