<svg width="21" height="23" viewBox="0 0 21 23" fill="none" xmlns="http://www.w3.org/2000/svg"><path d="M0.876255 16.7677V9.99377C0.873403 7.99509 1.7526 6.11016 3.25225 4.89981L7.45838 2.1946C9.32762 0.99047 11.6735 0.99047 13.5428 2.1946L17.7503 4.89981C19.2499 6.11016 20.1291 7.99509 20.1263 9.99377V16.7677C20.1847 19.4328 18.1963 21.6441 15.6836 21.7086H5.31888C2.80619 21.6441 0.817844 19.4328 0.876255 16.7677Z" stroke="#070A21" stroke-width="1.5" stroke-linecap="round" stroke-linejoin="round"/><path fill-rule="evenodd" clip-rule="evenodd" d="M0.876255 16.7677V9.99377C0.873403 7.99509 1.7526 6.11016 3.25225 4.89981L7.45838 2.1946C9.32762 0.99047 11.6735 0.99047 13.5428 2.1946L17.7503 4.89981C19.2499 6.11016 20.1291 7.99509 20.1263 9.99377V16.7677C20.1847 19.4328 18.1963 21.6441 15.6836 21.7086H5.31888C2.80619 21.6441 0.817844 19.4328 0.876255 16.7677ZM6.92675 15.2624C7.38486 14.9035 8.03056 15.0064 8.36897 15.4922C8.86879 16.2098 9.66006 16.6333 10.5013 16.6333C11.3424 16.6333 12.1337 16.2098 12.6335 15.4922C12.9719 15.0064 13.6176 14.9035 14.0758 15.2624C14.5339 15.6213 14.6309 16.3061 14.2925 16.792C13.4038 18.0679 11.9969 18.8208 10.5013 18.8208C9.00561 18.8208 7.59872 18.0679 6.71004 16.792C6.37162 16.3061 6.46865 15.6213 6.92675 15.2624Z" fill="#070A21"/></svg>