<svg width="34" height="39" viewBox="0 0 34 39" fill="none" xmlns="http://www.w3.org/2000/svg">
          <path d="M15.5553 1.1934C16.4448 0.669258 17.543 0.669257 18.4325 1.1934L32.0759 9.23262C32.9588 9.75285 33.5021 10.7105 33.5021 11.7465V27.8541C33.5021 28.89 32.9588 29.8477 32.0759 30.368L18.4325 38.4072C17.543 38.9313 16.4448 38.9313 15.5553 38.4072L1.91193 30.368C1.02905 29.8477 0.485718 28.89 0.485718 27.8541V11.7465C0.485718 10.7105 1.02905 9.75285 1.91193 9.23262L15.5553 1.1934Z" fill="#070A21"/>
          <path fill-rule="evenodd" clip-rule="evenodd" d="M27.6774 20.0146C28.0612 22.1805 27.5721 24.4107 26.3176 26.2146L23.0136 23.8998C23.6564 22.9754 23.907 21.8327 23.7103 20.7228C23.5137 19.613 22.8858 18.627 21.9649 17.9818C21.044 17.3366 19.9054 17.0851 18.7997 17.2825C17.694 17.4798 16.7117 18.11 16.0689 19.0344L12.7648 16.7196C14.0193 14.9156 15.9363 13.6858 18.0941 13.3006C20.252 12.9153 22.4739 13.4063 24.2711 14.6654C26.0683 15.9245 27.2936 17.8487 27.6774 20.0146ZM6.12634 19.4368C5.72768 17.2736 6.20149 15.04 7.44352 13.2275L10.9249 15.6309C10.318 16.5167 10.0864 17.6082 10.2812 18.6653C10.4761 19.7225 11.0813 20.6586 11.9638 21.2679C12.8463 21.8771 13.9337 22.1095 14.9869 21.914C16.0401 21.7184 16.9728 21.1109 17.5798 20.2251L21.0612 22.6286C19.8192 24.4411 17.9106 25.6842 15.7555 26.0844C13.6003 26.4845 11.3751 26.0089 9.56927 24.7623C7.76345 23.5156 6.52499 21.6 6.12634 19.4368Z" fill="#F5FAFF"/>
          </svg>