<svg width="21" height="14" viewBox="0 0 21 14" fill="none" xmlns="http://www.w3.org/2000/svg">
<path d="M5.52526 13.5727C5.85222 13.827 6.32343 13.7681 6.57773 13.4412C6.83203 13.1142 6.77313 12.643 6.44617 12.3887L5.52526 13.5727ZM1.48572 9.48071L1.48572 8.73071C1.16531 8.73071 0.880295 8.93425 0.776313 9.23731C0.67233 9.54037 0.772351 9.87602 1.02526 10.0727L1.48572 9.48071ZM19.4857 10.2307C19.8999 10.2307 20.2357 9.89493 20.2357 9.48071C20.2357 9.0665 19.8999 8.73071 19.4857 8.73071V10.2307ZM15.4462 0.722032C15.1192 0.467729 14.648 0.52663 14.3937 0.853591C14.1394 1.18055 14.1983 1.65176 14.5253 1.90606L15.4462 0.722032ZM19.4857 4.81405V5.56405C19.8061 5.56405 20.0911 5.36051 20.1951 5.05745C20.2991 4.75439 20.1991 4.41874 19.9462 4.22203L19.4857 4.81405ZM1.48572 4.06405C1.0715 4.06405 0.735718 4.39983 0.735718 4.81405C0.735718 5.22826 1.0715 5.56405 1.48572 5.56405V4.06405ZM6.44617 12.3887L1.94617 8.8887L1.02526 10.0727L5.52526 13.5727L6.44617 12.3887ZM1.48572 10.2307H19.4857V8.73071H1.48572L1.48572 10.2307ZM14.5253 1.90606L19.0253 5.40606L19.9462 4.22203L15.4462 0.722032L14.5253 1.90606ZM19.4857 4.06405H1.48572V5.56405L19.4857 5.56405V4.06405Z" fill="#03001B"/>
</svg>
